<?xml version="1.0" encoding="UTF-8" standalone="no"?>
<!-- Created with Inkscape (http://www.inkscape.org/) -->

<svg
   width="500mm"
   height="500mm"
   viewBox="0 0 500 500"
   version="1.1"
   id="svg1"
   xml:space="preserve"
   inkscape:version="1.3 (0e150ed6c4, 2023-07-21)"
   sodipodi:docname="nosleep.svg"
   xmlns:inkscape="http://www.inkscape.org/namespaces/inkscape"
   xmlns:sodipodi="http://sodipodi.sourceforge.net/DTD/sodipodi-0.dtd"
   xmlns="http://www.w3.org/2000/svg"
   xmlns:svg="http://www.w3.org/2000/svg"><sodipodi:namedview
     id="namedview1"
     pagecolor="#ffffff"
     bordercolor="#000000"
     borderopacity="0.25"
     inkscape:showpageshadow="2"
     inkscape:pageopacity="0.0"
     inkscape:pagecheckerboard="0"
     inkscape:deskcolor="#d1d1d1"
     inkscape:document-units="mm"
     inkscape:zoom="0.21959526"
     inkscape:cx="999.56621"
     inkscape:cy="1058.766"
     inkscape:window-width="1366"
     inkscape:window-height="699"
     inkscape:window-x="0"
     inkscape:window-y="0"
     inkscape:window-maximized="1"
     inkscape:current-layer="layer1" /><defs
     id="defs1" /><g
     inkscape:label="Layer 1"
     inkscape:groupmode="layer"
     id="layer1"><text
       xml:space="preserve"
       style="font-size:52.9167px;font-family:'Liberation Serif';-inkscape-font-specification:'Liberation Serif';opacity:0.615036;fill:#000000;stroke:#000000;stroke-width:1;stroke-linecap:round;stroke-linejoin:bevel;stroke-dasharray:none;stroke-opacity:1"
       x="282.34332"
       y="127.71403"
       id="text3"><tspan
         sodipodi:role="line"
         id="tspan3"
         style="stroke-width:1"
         x="282.34332"
         y="127.71403" /></text><g
       id="g3"
       transform="matrix(3.215146,0,0,3.215146,-553.78651,-553.7865)"><text
         xml:space="preserve"
         style="font-size:31.3763px;font-family:'Liberation Serif';-inkscape-font-specification:'Liberation Serif';opacity:1;fill:#000000;stroke:#46a34e;stroke-width:2.093;stroke-linecap:round;stroke-linejoin:bevel;stroke-dasharray:none"
         x="203.37984"
         y="260.23407"
         id="text2"><tspan
           sodipodi:role="line"
           id="tspan2"
           x="203.37984"
           y="260.23407"
           style="font-size:31.3763px;stroke:#000000;stroke-width:2.093;stroke-dasharray:none;stroke-opacity:1">SLEEP</tspan></text><path
         style="fill:#bb2028;stroke:none"
         d="m 244.98688,186.04079 c -7.19643,1.39931 -14.45751,2.00659 -21.24988,5.2141 -16.14849,7.62568 -29.91852,22.10072 -35.21968,39.44999 -5.8019,18.98804 -2.71648,41.92721 9.44438,57.84688 14.98628,19.61841 40.5381,29.63545 64.73341,24.59476 30.36411,-6.32585 54.44647,-35.28498 51.35386,-67.09451 -2.70847,-27.8585 -21.50988,-51.46805 -48.99276,-58.33877 -6.1588,-1.5397 -13.70951,-2.90907 -20.06933,-1.67245 m -31.87481,22.23366 c 1.65499,-2.7834 5.0105,-4.32412 7.67356,-6.09949 7.63877,-5.09251 15.74253,-7.18732 24.79153,-8.06709 22.32615,-2.17061 43.63728,10.40932 54.30523,30.104 3.70499,6.83999 5.164,14.24162 5.90274,21.84014 1.06356,10.93944 -1.36377,21.49475 -6.39463,31.28454 -1.22891,2.3914 -3.89818,8.17345 -6.5914,9.14925 -2.06567,0.74844 -5.21584,-3.74016 -6.49302,-5.01733 m -78.50648,-67.88154 72.01346,72.01346 c 1.4941,1.4941 6.29627,4.86103 6.29627,7.08329 0,2.56656 -6.12462,5.48527 -8.06709,6.5914 -9.99877,5.69375 -20.5574,6.98491 -31.87481,6.98491 -6.13864,0 -12.02485,-1.72496 -17.70823,-3.93517 -24.31242,-9.45482 -37.75496,-35.06751 -34.2359,-60.40473 1.05932,-7.62713 3.86484,-15.40267 8.06708,-21.84014 1.53972,-2.35874 3.10136,-5.06131 5.50922,-6.49302"
         id="path1"
         sodipodi:nodetypes="cssssssccssssssccsssscssc" /></g></g></svg>
