<?xml version="1.0" encoding="UTF-8" standalone="no"?>
<!-- Uploaded to: SVG Repo, www.svgrepo.com, Generator: SVG Repo Mixer Tools -->

<svg
   height="16"
   width="16"
   version="1.1"
   id="Layer_1"
   viewBox="0 0 10.24 10.24"
   xml:space="preserve"
   sodipodi:docname="io.github.sigmasd.stimulator-tray-active.svg"
   inkscape:version="1.3.2 (091e20ef0f, 2023-11-25)"
   xmlns:inkscape="http://www.inkscape.org/namespaces/inkscape"
   xmlns:sodipodi="http://sodipodi.sourceforge.net/DTD/sodipodi-0.dtd"
   xmlns="http://www.w3.org/2000/svg"
   xmlns:svg="http://www.w3.org/2000/svg"><defs
   id="defs6" /><sodipodi:namedview
   id="namedview6"
   pagecolor="#ffffff"
   bordercolor="#000000"
   borderopacity="0.25"
   inkscape:showpageshadow="2"
   inkscape:pageopacity="0.0"
   inkscape:pagecheckerboard="false"
   inkscape:deskcolor="#d1d1d1"
   inkscape:zoom="34.940084"
   inkscape:cx="1.7744663"
   inkscape:cy="9.0011232"
   inkscape:window-width="1444"
   inkscape:window-height="1045"
   inkscape:window-x="35"
   inkscape:window-y="32"
   inkscape:window-maximized="0"
   inkscape:current-layer="Layer_1" />
<circle
   style="display:inline;fill:#ff7800;fill-opacity:1;stroke-width:0.02"
   cx="5.1171808"
   cy="9.2400398"
   id="circle1"
   r="0.99995995" />





<path
   id="path2"
   style="display:inline;fill:#ff7800;fill-opacity:1"
   d="M 256.022 0 C 162.61209 0 86.897 75.716093 86.897 169.125 C 86.897 204.04997 97.446518 236.49253 115.5845 263.4375 C 149.51247 313.83745 167.772 373.30756 167.772 434.0625 L 167.772 434.125 C 167.772 449.53298 180.30052 462 195.7095 462 L 316.3345 462 C 331.74248 462 344.2095 449.53398 344.2095 434.125 L 344.2095 434.0625 C 344.2095 373.02056 362.30803 314.07445 396.397 263.4375 C 414.53298 236.49253 425.147 204.04997 425.147 169.125 C 425.147 75.716093 349.43191 -1.8947787e-14 256.022 0 z M 287.147 64 C 288.11823 64.070894 289.09055 64.337995 290.022 64.75 C 293.74844 66.398018 295.83817 70.383864 295.022 74.375 L 273.022 181.8125 L 327.272 181.8125 C 332.50422 181.8125 337.27888 184.77149 339.647 189.4375 C 342.01559 194.10352 341.54852 199.71383 338.4595 203.9375 L 232.772 348.4375 C 230.36697 351.7258 225.9978 352.8977 222.272 351.25 C 218.5465 349.60198 216.45535 345.6162 217.272 341.625 L 239.272 234.1875 L 185.022 234.1875 C 179.78982 234.1875 175.01559 231.22853 172.647 226.5625 C 170.27888 221.8965 170.74595 216.28618 173.8345 212.0625 L 279.522 67.5625 C 281.32584 65.096154 284.23331 63.787317 287.147 64 z "
   transform="matrix(0.02,0,0,0.02,-0.00294,0)" /></svg>
