<?xml version="1.0" encoding="UTF-8" standalone="no"?>
<!-- Uploaded to: SVG Repo, www.svgrepo.com, Generator: SVG Repo Mixer Tools -->

<svg
   height="128"
   width="128"
   version="1.1"
   id="Layer_1"
   viewBox="0 0 81.92 81.92"
   xml:space="preserve"
   sodipodi:docname="io.github.sigmasd.stimulator-libadwaita.svg"
   inkscape:version="1.3.2 (091e20ef0f, 2023-11-25)"
   xmlns:inkscape="http://www.inkscape.org/namespaces/inkscape"
   xmlns:sodipodi="http://sodipodi.sourceforge.net/DTD/sodipodi-0.dtd"
   xmlns="http://www.w3.org/2000/svg"
   xmlns:svg="http://www.w3.org/2000/svg"><defs
   id="defs6" /><sodipodi:namedview
   id="namedview6"
   pagecolor="#ffffff"
   bordercolor="#000000"
   borderopacity="0.25"
   inkscape:showpageshadow="2"
   inkscape:pageopacity="0.0"
   inkscape:pagecheckerboard="0"
   inkscape:deskcolor="#d1d1d1"
   inkscape:zoom="6.2083975"
   inkscape:cx="73.77105"
   inkscape:cy="59.194019"
   inkscape:window-width="1724"
   inkscape:window-height="948"
   inkscape:window-x="35"
   inkscape:window-y="32"
   inkscape:window-maximized="0"
   inkscape:current-layer="Layer_1" />
<circle
   style="fill:#f9f06b;stroke-width:0.14;fill-opacity:1"
   cx="40.959465"
   cy="69.800278"
   id="circle1"
   r="6.9997191" />
<g
   id="g2"
   transform="matrix(0.13999997,0,0,0.13999997,5.1186226,5.12)">
	<path
   style="fill:#f6d32d;fill-opacity:1"
   d="m 305.996,462.004 c 0,-27.612 -22.384,-49.996 -49.996,-49.996 V 512 c 27.612,0 49.996,-22.384 49.996,-49.996 z"
   id="path1" />
	<path
   style="fill:#f6d32d;fill-opacity:1"
   d="M 425.133,169.133 C 425.133,75.724 349.41,0 256,0 162.59,0 86.867,75.724 86.867,169.133 c 0,34.925 10.587,67.376 28.725,94.321 33.928,50.4 52.205,109.859 52.205,170.614 v 0.037 c 0,15.408 12.491,27.9 27.9,27.9 h 120.609 c 15.408,0 27.9,-12.491 27.9,-27.9 v -0.037 c 0,-61.042 18.116,-119.977 52.205,-170.614 18.136,-26.945 28.722,-59.396 28.722,-94.321 z"
   id="path2" />
</g>
<path
   style="fill:#ffa348;stroke-width:0.14;fill-opacity:1"
   d="m 40.958616,5.12 v 64.680552 h 8.442562 c 2.15712,0 3.905999,-1.74874 3.905999,-3.906 v -0.0052 c 0,-8.545878 2.53624,-16.796777 7.3087,-23.885957 2.53946,-3.772299 4.0215,-8.315439 4.0215,-13.204937 C 64.637237,15.721358 54.036017,5.12 40.958616,5.12 Z"
   id="path3" />
<path
   style="fill:#9a9996;stroke-width:0.14;fill-opacity:1"
   d="m 27.276699,55.330713 c 0.878638,3.433639 1.333358,6.980119 1.333358,10.558939 v 0.0052 c 0,2.157122 1.74874,3.906 3.906,3.906 h 16.885241 c 2.15714,0 3.905999,-1.74874 3.905999,-3.906 v -0.0052 c 0,-3.59338 0.45026,-7.13412 1.3247,-10.558799 H 27.276699 Z"
   id="path4" />
<path
   style="fill:#383838;stroke-width:0.142752;fill-opacity:1"
   d="m 50.257304,29.885972 c 0.348906,-0.47708 0.400298,-1.1099 0.13276,-1.636942 -0.267498,-0.527042 -0.80853,-0.859228 -1.399526,-0.859228 H 42.868172 L 45.35021,15.254993 c 0.09218,-0.450811 -0.14194,-0.90505 -0.562874,-1.091199 -0.420834,-0.18615 -0.914476,-0.05425 -1.18614,0.317196 L 31.662681,30.804582 c -0.348886,0.47708 -0.40028,1.1099 -0.13276,1.63694 0.267518,0.527044 0.808552,0.85923 1.399546,0.85923 h 6.122363 l -2.482033,12.134809 c -0.09222,0.450812 0.14204,0.90505 0.562872,1.091198 0.420834,0.18614 0.914472,0.05424 1.186128,-0.317194 z"
   id="path5" />
<path
   style="fill:#77767b;stroke-width:0.14;fill-opacity:1"
   d="m 40.958616,69.800552 h 8.442562 c 2.15712,0 3.905999,-1.74874 3.905999,-3.906 v -0.0052 c 0,-3.593378 0.45024,-7.134118 1.32466,-10.558797 H 40.958616 Z"
   id="path6" />
</svg>
