<?xml version="1.0" encoding="UTF-8" standalone="no"?>
<!-- Uploaded to: SVG Repo, www.svgrepo.com, Generator: SVG Repo Mixer Tools -->

<svg
   height="16"
   width="16"
   version="1.1"
   id="Layer_1"
   viewBox="0 0 10.24 10.24"
   xml:space="preserve"
   sodipodi:docname="stimulator-inactive-symbolic.svg"
   inkscape:version="1.3.2 (091e20ef0f, 2023-11-25)"
   xmlns:inkscape="http://www.inkscape.org/namespaces/inkscape"
   xmlns:sodipodi="http://sodipodi.sourceforge.net/DTD/sodipodi-0.dtd"
   xmlns="http://www.w3.org/2000/svg"
   xmlns:svg="http://www.w3.org/2000/svg"><defs
   id="defs6" /><sodipodi:namedview
   id="namedview6"
   pagecolor="#ffffff"
   bordercolor="#000000"
   borderopacity="0.25"
   inkscape:showpageshadow="2"
   inkscape:pageopacity="0.0"
   inkscape:pagecheckerboard="0"
   inkscape:deskcolor="#d1d1d1"
   inkscape:zoom="35.12"
   inkscape:cx="6.0506834"
   inkscape:cy="8.7699317"
   inkscape:window-width="2048"
   inkscape:window-height="1083"
   inkscape:window-x="0"
   inkscape:window-y="0"
   inkscape:window-maximized="1"
   inkscape:current-layer="Layer_1" />
<circle
   style="fill:#f2f2f2;fill-opacity:1;stroke-width:0.0175"
   cx="5.1199336"
   cy="8.7250347"
   id="circle1"
   r="0.87496495" />
<g
   id="g2"
   transform="matrix(0.0175,0,0,0.0175,0.6398275,0.64)">
	<path
   style="fill:#f2f2f2;fill-opacity:1"
   d="m 305.996,462.004 c 0,-27.612 -22.384,-49.996 -49.996,-49.996 V 512 c 27.612,0 49.996,-22.384 49.996,-49.996 z"
   id="path1" />
	<path
   style="fill:#f2f2f2;fill-opacity:1"
   d="M 425.133,169.133 C 425.133,75.724 349.41,0 256,0 162.59,0 86.867,75.724 86.867,169.133 c 0,34.925 10.587,67.376 28.725,94.321 33.928,50.4 52.205,109.859 52.205,170.614 v 0.037 c 0,15.408 12.491,27.9 27.9,27.9 h 120.609 c 15.408,0 27.9,-12.491 27.9,-27.9 v -0.037 c 0,-61.042 18.116,-119.977 52.205,-170.614 18.136,-26.945 28.722,-59.396 28.722,-94.321 z"
   id="path2" />
</g>
<path
   style="fill:#f2f2f2;fill-opacity:1;stroke-width:0.0175"
   d="m 5.1198266,0.64 v 8.085069 h 1.055321 c 0.26964,0 0.488249,-0.218593 0.488249,-0.48825 v -6.5e-4 c 0,-1.0682345 0.317031,-2.0995971 0.913588,-2.9857445 C 7.8944166,4.7788871 8.0796716,4.2109946 8.0796716,3.5998073 8.0796546,1.9651699 6.7545016,0.64 5.1198266,0.64 Z"
   id="path3" />
<path
   style="fill:#f2f2f2;fill-opacity:1;stroke-width:0.0175"
   d="M 3.409587,6.9163392 C 3.5194167,7.3455439 3.5762576,7.7888538 3.5762576,8.236206 v 6.5e-4 c 0,0.269641 0.218591,0.488251 0.488249,0.488251 h 2.110655 c 0.269643,0 0.488251,-0.218593 0.488251,-0.488251 v -6.5e-4 c 0,-0.449172 0.05628,-0.8917646 0.165587,-1.3198493 H 3.409587 Z"
   id="path4" />

<path
   style="fill:#f2f2f2;fill-opacity:1;stroke-width:0.0175"
   d="m 5.1198266,8.725069 h 1.055321 c 0.26964,0 0.488249,-0.218593 0.488249,-0.48825 v -6.5e-4 c 0,-0.4491725 0.05628,-0.8917643 0.165582,-1.3198496 h -1.709152 z"
   id="path6" />
</svg>
